<?xml version="1.0" encoding="utf-8"?>
<!-- Uploaded to: SVG Repo, www.svgrepo.com, Generator: SVG Repo Mixer Tools -->
<svg fill="#000000" height="16px" width="11px" version="1.2" baseProfile="tiny" id="passport_by_Adioma"
	 xmlns="http://www.w3.org/2000/svg" xmlns:xlink="http://www.w3.org/1999/xlink"  viewBox="0 0 179 256"
	 xml:space="preserve">
<path d="M89.2,71.6v16.1H76.6C79.7,79.4,84.1,73.5,89.2,71.6z M74.5,132.7h14.7h0V117H72.4C72.6,122.6,73.3,127.9,74.5,132.7z
	 M58.7,139.4c4.5,5.9,10.6,10.7,17.6,13.6c-2.7-3.7-5-8.3-6.7-13.6H58.7z M72.3,110.3h16.9h0V94.4H74.5
	C73.3,99.3,72.6,104.7,72.3,110.3z M89.2,155.6v-16.1H76.6C79.7,147.7,84.1,153.7,89.2,155.6z M65.7,117H50.1
	c0.4,5.6,2,10.9,4.4,15.7h13.2C66.6,127.9,65.9,122.6,65.7,117z M76,74.4c-6.8,2.9-12.8,7.5-17.2,13.3h10.7
	C71.2,82.6,73.4,78.1,76,74.4z M67.7,94.4H54.6c-2.5,4.8-4,10.2-4.5,15.9h15.6C65.9,104.7,66.6,99.3,67.7,94.4z M177,25.6v228.6H2.1
	V20.8L160,1.9v23.7H177z M147.9,15.5l-84,10.1h84V15.5z M144.2,113.6c0-28.5-23.1-51.7-51.7-51.7c-28.5,0-51.7,23.1-51.7,51.7
	c0,28.5,23.1,51.7,51.7,51.7C121.1,165.2,144.2,142.1,144.2,113.6z M40.9,192.7v20.6h103.3v-20.6H40.9z M95.9,155.6
	c5.1-1.8,9.6-7.8,12.7-16.1H95.9V155.6z M108.9,153c7-2.9,13-7.6,17.6-13.6h-10.8C113.9,144.7,111.6,149.3,108.9,153z M117.4,132.7
	h13.2c2.4-4.8,3.9-10.1,4.4-15.7h-15.6C119.2,122.6,118.5,127.9,117.4,132.7z M112.8,117H95.9v15.7h14.7
	C111.8,127.9,112.5,122.6,112.8,117z M110.6,94.4H95.9v15.9h16.9C112.5,104.7,111.8,99.3,110.6,94.4z M119.4,110.3H135
	c-0.4-5.7-2-11.1-4.5-15.9h-13.1C118.6,99.3,119.2,104.7,119.4,110.3z M126.3,87.8c-4.5-5.8-10.4-10.4-17.2-13.3
	c2.6,3.7,4.8,8.2,6.5,13.3H126.3z M95.9,71.6v16.1h12.7C105.5,79.4,101,73.5,95.9,71.6z"/>
</svg>