<svg xmlns="http://www.w3.org/2000/svg" viewBox="0 0 24 24" fill="none">
  <path d="M5 5c0-.407-.243-.757-.591-.913.144-.113.318-.191.511-.218l10.797-1.543A2 2 0 0 1 18 4.306v.82A4.013 4.013 0 0 0 17 5H5Z" fill="currentColor"/>
  <path d="M9.75 13a2.25 2.25 0 1 1 4.5 0 2.25 2.25 0 0 1-4.5 0Z" fill="currentColor"/>
  <path fill-rule="evenodd" d="M18 6.171A3.001 3.001 0 0 1 20 9v10a3 3 0 0 1-3 3H7a3 3 0 0 1-3-3V5a1 1 0 0 0 1 1h12c.351 0 .687.06 1 .171ZM12 9.25a3.75 3.75 0 1 0 0 7.5 3.75 3.75 0 0 0 0-7.5Zm-2 9a.75.75 0 0 0 0 1.5h4a.75.75 0 0 0 0-1.5h-4Z" clip-rule="evenodd" fill="currentColor"/>
</svg>
